<?xml version="1.0" encoding="UTF-8" standalone="no"?>
<svg width="454px" height="189px" viewBox="0 0 454 189" version="1.1" xmlns="http://www.w3.org/2000/svg" xmlns:xlink="http://www.w3.org/1999/xlink">
    <!-- Generator: Sketch 46.2 (44496) - http://www.bohemiancoding.com/sketch -->
    <title>Group</title>
    <desc>Created with Sketch.</desc>
    <defs></defs>
    <g id="Page-1" stroke="none" stroke-width="1" fill="none" fill-rule="evenodd">
        <g id="DataIntegrationMetrics_CreditManagement_NoContract" transform="translate(-541.000000, -375.000000)">
            <g id="Group" transform="translate(543.000000, 359.000000)">
                <g id="Cloud2" transform="translate(170.689655, 101.831897)" stroke-linecap="round" stroke-width="3" stroke="#C2E8FF">
                    <g id="Cloud2LightBlue">
                        <path d="M42.6724138,16.9719828 L61.0991379,16.9719828 C60.3998645,11.7081438 62.1480481,7.30461509 66.343689,3.76139674 C71.1615727,-0.189656225 76.8815665,0.69611648 79.9534765,2.05946297 C83.0253864,3.42280947 85.3067069,5.29593106 86.8881226,8.83051333 C87.5581939,10.3187086 88.0135898,11.5777904 88.2543103,12.6077586" id="Cloud2Outline4"></path>
                        <path d="M80.4956897,19.8814655 C81.5196596,16.3379011 83.6211895,14.0210645 86.8002793,12.9309556 C91.568914,11.2957922 96.090593,13.4734055 97.8967075,15.664515 C99.7028219,17.8556245 100.275342,19.6158047 100.616297,21.4526999 C100.843601,22.6772966 100.925524,24.093207 100.862069,25.700431 C104.878866,25.5368989 107.572253,26.3450886 108.942229,28.125 C110.599176,30.2524172 110.76918,32.7972675 110.165642,34.6713362 C109.562104,36.5454049 107.548576,39.2780172 103.771552,39.2780172 L27.1551724,39.2780172" id="Cloud2Outline3"></path>
                        <path d="M17.4568966,26.6702586 L80.4961732,26.6702586" id="Cloud2Outline2"></path>
                        <path d="M0,26.6702586 L7.75862069,26.6702586" id="Cloud2Outline1"></path>
                    </g>
                </g>
                <g id="Cloud1" transform="translate(64.008621, 55.280172)" stroke-linecap="round" stroke-width="3" stroke="#C2E8FF">
                    <g id="Cloud1LightBlue">
                        <path d="M42.6724138,16.9719828 L61.0991379,16.9719828 C60.3998645,11.7081438 62.1480481,7.30461509 66.343689,3.76139674 C71.1615727,-0.189656225 76.8815665,0.69611648 79.9534765,2.05946297 C83.0253864,3.42280947 85.3067069,5.29593106 86.8881226,8.83051333 C87.5581939,10.3187086 88.0135898,11.5777904 88.2543103,12.6077586" id="Cloud1Outline4"></path>
                        <path d="M80.4956897,19.8814655 C81.5196596,16.3379011 83.6211895,14.0210645 86.8002793,12.9309556 C91.568914,11.2957922 96.090593,13.4734055 97.8967075,15.664515 C99.7028219,17.8556245 100.275342,19.6158047 100.616297,21.4526999 C100.843601,22.6772966 100.925524,24.093207 100.862069,25.700431 C104.878866,25.5368989 107.572253,26.3450886 108.942229,28.125 C110.599176,30.2524172 110.76918,32.7972675 110.165642,34.6713362 C109.562104,36.5454049 107.548576,39.2780172 103.771552,39.2780172 L27.1551724,39.2780172" id="Cloud1Outline3"></path>
                        <path d="M17.4568966,26.6702586 L80.4961732,26.6702586" id="Cloud1Outline2"></path>
                        <path d="M0,26.6702586 L7.75862069,26.6702586" id="Cloud1Outline1"></path>
                    </g>
                </g>
                <g id="Mountain" transform="translate(0.000000, 156.142241)" stroke-linecap="round" stroke-width="3" stroke="#C2E8FF">
                    <g id="MountainLightBlue">
                        <path d="M13.5775862,35.3987069 L450,35.3987069" id="HorizontalLine4"></path>
                        <path d="M0,35.3987069 L5.81896552,35.3987069" id="HorizontalLine3"></path>
                        <polyline id="MountainLine4" stroke-linejoin="round" points="227.424569 34.9137931 271.06681 0 304.040948 25.2155172"></polyline>
                        <path d="M271.06681,0.969827586 L271.06681,33.9439655" id="MountainLine3" stroke-linejoin="round"></path>

                        <path d="M304.040948,10.6681034 C304.040948,20.1178986 304.040948,24.9670366 304.040948,25.2155172 C304.040948,24.9670366 304.040948,20.1178986 304.040948,10.6681034 Z" id="MountainLine2" stroke-linejoin="round"></path>
                        <polyline id="MountainLine1" stroke-linejoin="round" points="294.342672 16.487069 304.040948 8.72844828 337.015086 34.9137931"></polyline>
                    </g>
                </g>
                <g id="Plant" transform="translate(42.672414, 80.495690)">
                    <g id="PlantLightBlue" transform="translate(29.094828, 7.758621)" fill="#C2E8FF">
                        <path d="M28.6099138,58.674569 L28.6099138,11.637931 C28.6099138,5.2104792 33.820393,0 40.2478448,0 C46.6752967,0 51.8857759,5.2104792 51.8857759,11.637931 L51.8857759,39.2780172 L68.3728448,39.2780172 L68.3728448,26.1853448 C68.3728448,22.4359979 71.412291,19.3965517 75.1616379,19.3965517 C78.9109848,19.3965517 81.950431,22.4359979 81.950431,26.1853448 L81.950431,47.0366379 C81.950431,50.2503638 79.3451914,52.8556034 76.1314655,52.8556034 L51.8857759,52.8556034 L51.8857759,114.924569 L28.6099138,114.924569 L28.6099138,72.2521552 L6.30387931,72.2521552 C3.0901534,72.2521552 0.484913793,69.6469156 0.484913793,66.4331897 L0.484913793,37.8232759 C0.484913793,34.073929 3.52436,31.0344828 7.2737069,31.0344828 C11.0230538,31.0344828 14.0625,34.073929 14.0625,37.8232759 L14.0625,58.674569 L28.6099138,58.674569 Z" id="PlantLightBlueLine1"></path>
                    </g>
                    <g id="PlantHighlight" transform="translate(57.219828, 6.788793)" fill="#FFFFFF">
                        <path d="M1.93965517,10.6681034 C3.54309082,8.23524738 5.48128588,6.56926385 7.75424036,5.67015286 C11.1636721,4.32148637 14.8077472,4.80651855 17.2781319,6.0929134 C19.7485167,7.37930824 21.6879351,9.35862311 22.5584359,11.4595216 C23.1387697,12.8601206 23.1387697,11.4000518 22.5584359,7.07931519 L19.0210277,3.45737852 L13.3762097,0.547303825 L8.50114494,1.3835907 L4.53221551,3.10138834 C2.61750057,4.98397023 1.64443707,5.98114525 1.61302501,6.0929134 C1.56590692,6.26056563 0.830249129,9.20507497 0.78940556,9.36856763 C0.762176514,9.47756274 1.14559305,9.91074135 1.93965517,10.6681034 Z" id="PlantHighlight1"></path>
                    </g>
                    <g id="PlantDarkBlue" stroke="#8CD3F8" stroke-width="3">
                        <path d="M0,122.68319 L345.258621,122.68319" id="HorizontalLine2" stroke-linecap="round"></path>
                        <path d="M351.5625,122.68319 L360.788614,122.68319" id="HorizontalLine1" stroke-linecap="round"></path>
                        <path d="M104.256466,19.3965517 L104.256466,27.1551724" id="PlantDarkBlueLine10" stroke-linecap="round"></path>
                        <path d="M109.590517,29.731863 L115.076691,24.2456897" id="PlantDarkBlueLine9" stroke-linecap="round"></path>
                        <path d="M36.3685345,31.0344828 L36.3685345,38.7931034" id="PlantDarkBlueLine8" stroke-linecap="round"></path>
                        <path d="M42.6724138,41.369794 L48.1585871,35.8836207" id="PlantDarkBlueLine7" stroke-linecap="round"></path>
                        <path d="M24.2456897,41.369794 L29.731863,35.8836207" id="PlantDarkBlueLine6" stroke-linecap="round" transform="translate(26.988776, 38.626707) scale(-1, 1) translate(-26.988776, -38.626707) "></path>
                        <path d="M69.3426724,0 L69.3426724,7.75862069" id="PlantDarkBlueLine5" stroke-linecap="round"></path>
                        <path d="M76.6163793,10.3353112 L82.1025526,4.84913793" id="PlantDarkBlueLine4" stroke-linecap="round"></path>
                        <path d="M56.25,10.3353112 L61.7361733,4.84913793" id="PlantDarkBlueLine3" stroke-linecap="round" transform="translate(58.993087, 7.592225) scale(-1, 1) translate(-58.993087, -7.592225) "></path>
                        <path d="M57.7047414,66.4331897 L57.7047414,19.3965517 C57.7047414,12.9690999 62.9152206,7.75862069 69.3426724,7.75862069 C75.7701242,7.75862069 80.9806034,12.9690999 80.9806034,19.3965517 L80.9806034,47.0366379 L97.4676724,47.0366379 L97.4676724,33.9439655 C97.4676724,30.1946186 100.507119,27.1551724 104.256466,27.1551724 C108.005812,27.1551724 111.045259,30.1946186 111.045259,33.9439655 L111.045259,54.7952586 C111.045259,58.0089845 108.440019,60.6142241 105.226293,60.6142241 L80.9806034,60.6142241 L80.9806034,122.68319 L57.7047414,122.68319 L57.7047414,80.0107759 L35.3987069,80.0107759 C32.184981,80.0107759 29.5797414,77.4055363 29.5797414,74.1918103 L29.5797414,45.5818966 C29.5797414,41.8325497 32.6191876,38.7931034 36.3685345,38.7931034 C40.1178814,38.7931034 43.1573276,41.8325497 43.1573276,45.5818966 L43.1573276,66.4331897 L57.7047414,66.4331897 Z" id="PlantDarkBlueLine2"></path>
                        <path d="M74.6767241,85.8297414 L89.7090517,85.8297414 L89.7090517,78.5560345 L89.7090517,78.5560345 C89.7090517,74.8066876 92.7484979,71.7672414 96.4978448,71.7672414 L96.4978448,71.7672414 L96.4978448,71.7672414 C100.247192,71.7672414 103.286638,74.8066876 103.286638,78.5560345 L103.286638,93.4073276 L103.286638,93.4073276 C103.286638,96.7210361 100.600346,99.4073276 97.2866379,99.4073276 L74.6767241,99.4073276" id="PlantDarkBlueLine1" fill="#C2E8FF" stroke-linecap="round" stroke-linejoin="round"></path>
                    </g>
                </g>
                <g id="Plant2" transform="translate(349.137931, 142.564655)" stroke-linecap="round" stroke-width="3" stroke="#C2E8FF">
                    <g id="Plant2LightBlue">
                        <path d="M12.1228448,3.87931034 L12.1228448,48.4913793" id="Plant2LightBlueLine3"></path>
                        <polyline id="Plant2LightBlueLine3" stroke-linejoin="round" points="10.6681034 17.9418103 0.484913793 17.9418103 0.484913793 0"></polyline>
                        <polyline id="Plant2LightBlueLine2" stroke-linejoin="round" points="13.5775862 24.7306034 23.7607759 24.7306034 23.7607759 7.75862069"></polyline>
                        <polyline id="Plant2LightBlueLine1" stroke-linejoin="round" points="2.42456897 30.0646552 2.42456897 37.3383621 10.6681034 37.3383621"></polyline>
                    </g>
                </g>
                <g id="Sun" transform="translate(250.215517, 0.000000)">
                    <g id="SunLightBlue">
                        <circle id="SunBkgd" fill="#C2E8FF" cx="62.0689655" cy="62.0689655" r="22.3060345"></circle>
                        <circle id="SunOutline3" stroke="#C2E8FF" stroke-width="3" stroke-linecap="round" stroke-linejoin="round" stroke-dasharray="135,1,1,18" transform="translate(62.068966, 62.068966) rotate(230.000000) translate(-62.068966, -62.068966) " cx="62.0689655" cy="62.0689655" r="43.6422414"></circle>
                        <circle id="SunOutline2" stroke="#C2E8FF" stroke-width="3" stroke-linecap="round" stroke-linejoin="round" stroke-dasharray="107,10" transform="translate(62.068966, 62.068966) rotate(150.000000) translate(-62.068966, -62.068966) " cx="62.0689655" cy="62.0689655" r="32.0043103"></circle>
                    </g>
                    <g id="SunDarkBlue" transform="translate(39.762931, 39.762931)" stroke-width="3" stroke="#8CD3F8">
                        <circle id="SunOutline" cx="22.3060345" cy="22.3060345" r="22.3060345"></circle>
                    </g>
                </g>
            </g>
        </g>
    </g>
</svg>